<svg width="19" height="18" viewBox="0 0 19 18" fill="none" xmlns="http://www.w3.org/2000/svg">
<g id="closed eye">
<path id="Vector" d="M16.5312 12.3048C16.467 12.3414 16.3961 12.365 16.3227 12.3742C16.2494 12.3835 16.1749 12.3781 16.1036 12.3585C16.0322 12.3389 15.9655 12.3055 15.9071 12.26C15.8488 12.2146 15.7999 12.1581 15.7634 12.0938L14.4275 9.75945C13.6508 10.2846 12.794 10.6802 11.8906 10.9309L12.3033 13.4073C12.3155 13.4802 12.3132 13.5548 12.2965 13.6268C12.2799 13.6988 12.2492 13.7668 12.2062 13.8269C12.1632 13.8871 12.1088 13.9382 12.0461 13.9773C11.9834 14.0164 11.9136 14.0427 11.8407 14.0548C11.8107 14.0597 11.7804 14.0623 11.75 14.0626C11.6169 14.0624 11.4882 14.015 11.3868 13.9289C11.2853 13.8428 11.2177 13.7235 11.1959 13.5922L10.7902 11.1608C9.93463 11.2798 9.0667 11.2798 8.21114 11.1608L7.80543 13.5922C7.7836 13.7237 7.71577 13.8432 7.61404 13.9293C7.5123 14.0155 7.38328 14.0627 7.24996 14.0626C7.21887 14.0624 7.18784 14.0599 7.15715 14.0548C7.08424 14.0427 7.01442 14.0164 6.9517 13.9773C6.88898 13.9382 6.83458 13.8871 6.79162 13.8269C6.74865 13.7668 6.71796 13.6988 6.70129 13.6268C6.68463 13.5548 6.68232 13.4802 6.6945 13.4073L7.10934 10.9309C6.20627 10.6794 5.34998 10.2831 4.57387 9.75734L3.24215 12.0938C3.20522 12.1582 3.15597 12.2146 3.09722 12.26C3.03847 12.3053 2.97136 12.3386 2.89974 12.358C2.82811 12.3774 2.75337 12.3825 2.67978 12.373C2.60618 12.3635 2.53518 12.3396 2.47082 12.3027C2.40647 12.2657 2.35001 12.2165 2.30469 12.1577C2.25936 12.099 2.22605 12.0319 2.20666 11.9602C2.18727 11.8886 2.18218 11.8139 2.19167 11.7403C2.20116 11.6667 2.22506 11.5957 2.262 11.5313L3.66825 9.07039C3.1743 8.64364 2.72009 8.17297 2.31121 7.66414C2.26022 7.6072 2.22137 7.54048 2.19702 7.46803C2.17268 7.39558 2.16335 7.31893 2.16962 7.24275C2.17588 7.16658 2.1976 7.09249 2.23345 7.02499C2.26931 6.95749 2.31854 6.898 2.37815 6.85017C2.43775 6.80233 2.50648 6.76714 2.58014 6.74675C2.6538 6.72635 2.73084 6.72119 2.80657 6.73156C2.88229 6.74193 2.9551 6.76763 3.02057 6.80708C3.08603 6.84653 3.14276 6.8989 3.18731 6.96101C4.3545 8.40523 6.39637 10.1251 9.49996 10.1251C12.6036 10.1251 14.6454 8.40312 15.8126 6.96101C15.8567 6.89763 15.9133 6.844 15.9789 6.80343C16.0446 6.76287 16.1179 6.73626 16.1943 6.72524C16.2707 6.71423 16.3485 6.71905 16.4229 6.7394C16.4974 6.75976 16.5668 6.79522 16.627 6.84357C16.6871 6.89192 16.7367 6.95214 16.7726 7.02046C16.8084 7.08879 16.8299 7.16377 16.8355 7.24074C16.8412 7.3177 16.831 7.39501 16.8055 7.46785C16.78 7.54069 16.7397 7.60751 16.6873 7.66414C16.2784 8.17297 15.8242 8.64364 15.3303 9.07039L16.7365 11.5313C16.7743 11.5955 16.7989 11.6665 16.809 11.7402C16.8191 11.814 16.8145 11.889 16.7954 11.9609C16.7763 12.0329 16.7431 12.1003 16.6978 12.1593C16.6524 12.2183 16.5958 12.2678 16.5312 12.3048Z" fill="white"/>
</g>
</svg>
