<svg width="27" height="24" viewBox="0 0 27 24" fill="none" xmlns="http://www.w3.org/2000/svg">
<path d="M14.2435 24H1.4718C0.658707 24 0 23.4068 0 22.6753V1.32461C0 0.592925 0.65881 0 1.4718 0H25.195C26.0078 0 26.6667 0.592925 26.6667 1.32461V22.6753C26.6667 23.4069 26.0076 24 25.195 24H18.3996V14.7059H21.8658L22.3849 11.0838H18.3996V8.77132C18.3996 7.72264 18.7232 7.00801 20.394 7.00801L22.5252 7.00717V3.76755C22.1566 3.7234 20.8915 3.62478 19.4198 3.62478C16.3471 3.62478 14.2435 5.31276 14.2435 8.4126V11.0838H10.7684V14.7059H14.2435V24Z" fill="#6E00FF"/>
</svg>
