<svg width="43" height="42" viewBox="0 0 43 42" fill="none" xmlns="http://www.w3.org/2000/svg">
<g id="devicon:google">
<path id="Vector" d="M15.1311 1.38138C10.9346 2.83717 7.31562 5.6003 4.80562 9.26492C2.29562 12.9295 1.02694 17.3025 1.18592 21.7414C1.3449 26.1804 2.92316 30.4513 5.68889 33.927C8.45462 37.4027 12.262 39.8998 16.5519 41.0517C20.0297 41.9491 23.6735 41.9885 27.17 41.1665C30.3374 40.4551 33.2658 38.9332 35.6684 36.75C38.169 34.4083 39.9841 31.4294 40.9184 28.1334C41.9337 24.5491 42.1144 20.7799 41.4467 17.115H21.9167V25.2164H33.2272C33.0011 26.5085 32.5167 27.7417 31.803 28.8423C31.0892 29.9428 30.1607 30.888 29.0731 31.6214C27.6922 32.5353 26.1352 33.1501 24.5023 33.4261C22.8648 33.7306 21.1852 33.7306 19.5477 33.4261C17.8878 33.0833 16.3177 32.3982 14.9375 31.4147C12.7199 29.8449 11.0547 27.6147 10.1797 25.0425C9.2901 22.422 9.2901 19.5812 10.1797 16.9608C10.8026 15.124 11.8322 13.4516 13.1919 12.0684C14.7478 10.4565 16.7177 9.30428 18.8854 8.7382C21.053 8.17211 23.3347 8.21403 25.4802 8.85935C27.1562 9.3736 28.6889 10.2725 29.9558 11.4844C31.2311 10.2156 32.5042 8.94357 33.7752 7.66826C34.4314 6.98248 35.1467 6.32951 35.7931 5.62732C33.8589 3.82762 31.5887 2.42713 29.1125 1.50607C24.6031 -0.131305 19.669 -0.175308 15.1311 1.38138Z" fill="white"/>
<path id="Vector_2" d="M15.131 1.38151C19.6685 -0.176236 24.6026 -0.133391 29.1124 1.50292C31.5891 2.43024 33.8582 3.83746 35.7897 5.64386C35.1335 6.34605 34.4411 7.0023 33.7718 7.6848C32.4986 8.95573 31.2266 10.2223 29.9557 11.4845C28.6888 10.2726 27.1561 9.37373 25.48 8.85948C23.3353 8.2119 21.0537 8.16756 18.8855 8.73132C16.7172 9.29509 14.7461 10.4452 13.1885 12.0554C11.8288 13.4386 10.7992 15.111 10.1763 16.9478L3.37427 11.6814C5.80898 6.8532 10.0245 3.16003 15.131 1.38151Z" fill="#E33629"/>
<path id="Vector_3" d="M1.56971 16.8983C1.93504 15.0863 2.54203 13.3316 3.37439 11.6812L10.1764 16.9607C9.28684 19.5812 9.28684 22.4219 10.1764 25.0424C7.91018 26.7924 5.64283 28.5512 3.37439 30.3187C1.2913 26.1722 0.655986 21.4478 1.56971 16.8983Z" fill="#F8BD00"/>
<path id="Vector_4" d="M21.9167 17.1118H41.4467C42.1144 20.7768 41.9337 24.546 40.9185 28.1303C39.9841 31.4262 38.169 34.4051 35.6685 36.7468C33.4733 35.034 31.2683 33.3343 29.0731 31.6215C30.1615 30.8874 31.0904 29.9412 31.8042 28.8394C32.518 27.7377 33.002 26.5032 33.2272 25.2099H21.9167C21.9135 22.5128 21.9167 19.8123 21.9167 17.1118Z" fill="#587DBD"/>
<path id="Vector_5" d="M3.37109 30.3187C5.63953 28.5687 7.90687 26.81 10.1731 25.0425C11.0499 27.6156 12.7174 29.8459 14.9375 31.4147C16.322 32.3937 17.8955 33.0732 19.5575 33.4097C21.195 33.7142 22.8747 33.7142 24.5122 33.4097C26.145 33.1337 27.702 32.5189 29.083 31.605C31.2781 33.3178 33.4831 35.0175 35.6783 36.7303C33.276 38.9147 30.3476 40.4377 27.1798 41.1501C23.6834 41.9721 20.0396 41.9327 16.5617 41.0353C13.8111 40.3009 11.2417 39.0061 9.01484 37.2323C6.65801 35.3608 4.73293 33.0025 3.37109 30.3187Z" fill="#319F43"/>
</g>
</svg>
