<svg width="19" height="18" viewBox="0 0 19 18" fill="none" xmlns="http://www.w3.org/2000/svg">
<path d="M17.889 8.77219C17.8644 8.71664 17.2688 7.39547 15.9448 6.07148C14.1807 4.30734 11.9525 3.375 9.49999 3.375C7.04749 3.375 4.81929 4.30734 3.05515 6.07148C1.73117 7.39547 1.13281 8.71875 1.11101 8.77219C1.07903 8.84413 1.0625 8.92198 1.0625 9.0007C1.0625 9.07943 1.07903 9.15728 1.11101 9.22922C1.13562 9.28477 1.73117 10.6052 3.05515 11.9292C4.81929 13.6927 7.04749 14.625 9.49999 14.625C11.9525 14.625 14.1807 13.6927 15.9448 11.9292C17.2688 10.6052 17.8644 9.28477 17.889 9.22922C17.921 9.15728 17.9375 9.07943 17.9375 9.0007C17.9375 8.92198 17.921 8.84413 17.889 8.77219ZM9.49999 13.5C7.33577 13.5 5.44507 12.7132 3.87992 11.1621C3.23774 10.5234 2.69137 9.79519 2.25781 9C2.6912 8.20471 3.23759 7.47643 3.87992 6.83789C5.44507 5.2868 7.33577 4.5 9.49999 4.5C11.6642 4.5 13.5549 5.2868 15.1201 6.83789C15.7635 7.47633 16.3111 8.20459 16.7457 9C16.2387 9.94641 14.0302 13.5 9.49999 13.5ZM9.49999 5.625C8.83248 5.625 8.17996 5.82294 7.62494 6.19379C7.06993 6.56464 6.63735 7.09174 6.3819 7.70844C6.12645 8.32514 6.05962 9.00374 6.18984 9.65843C6.32007 10.3131 6.64151 10.9145 7.11351 11.3865C7.58551 11.8585 8.18688 12.1799 8.84156 12.3102C9.49625 12.4404 10.1748 12.3735 10.7916 12.1181C11.4083 11.8626 11.9354 11.4301 12.3062 10.875C12.6771 10.32 12.875 9.66751 12.875 9C12.8741 8.10518 12.5182 7.24728 11.8855 6.61454C11.2527 5.98181 10.3948 5.62593 9.49999 5.625ZM9.49999 11.25C9.05499 11.25 8.61997 11.118 8.24996 10.8708C7.87995 10.6236 7.59156 10.2722 7.42126 9.86104C7.25097 9.4499 7.20641 8.9975 7.29323 8.56105C7.38004 8.12459 7.59433 7.72368 7.909 7.40901C8.22367 7.09434 8.62458 6.88005 9.06104 6.79323C9.4975 6.70642 9.9499 6.75097 10.361 6.92127C10.7722 7.09157 11.1236 7.37996 11.3708 7.74997C11.618 8.11998 11.75 8.55499 11.75 9C11.75 9.59674 11.5129 10.169 11.091 10.591C10.669 11.0129 10.0967 11.25 9.49999 11.25Z" fill="white"/>
</svg>
