<svg width="27" height="20" viewBox="0 0 27 20" fill="none" xmlns="http://www.w3.org/2000/svg">
<path d="M26.7777 2.36764C25.7979 2.76923 24.743 3.04081 23.6364 3.16215C24.7664 2.5381 25.6336 1.54857 26.0421 0.369808C24.984 0.947635 23.8148 1.368 22.5657 1.59335C21.5703 0.612495 20.1475 0 18.5729 0C15.5536 0 13.104 2.26074 13.104 5.04875C13.104 5.44457 13.1509 5.82882 13.2449 6.19863C8.69788 5.98772 4.66744 3.97978 1.96744 0.921633C1.4963 1.66992 1.22709 2.5381 1.22709 3.46262C1.22709 5.21343 2.19283 6.75912 3.661 7.66486C2.7657 7.6403 1.92048 7.41062 1.18169 7.03503V7.09715C1.18169 9.54424 3.06779 11.5854 5.57214 12.0477C5.11353 12.1661 4.62988 12.2254 4.13057 12.2254C3.7784 12.2254 3.43405 12.195 3.10066 12.1358C3.79718 14.1408 5.81631 15.6013 8.2111 15.6403C6.3391 16.9953 3.97874 17.8028 1.41648 17.8028C0.975086 17.8028 0.538389 17.7797 0.111084 17.7335C2.53248 19.1636 5.40936 20 8.49754 20C18.5619 20 24.0637 12.3077 24.0637 5.63525C24.0637 5.41567 24.059 5.1961 24.0496 4.98086C25.1186 4.26869 26.0468 3.38028 26.7777 2.36764Z" fill="#6E00FF"/>
</svg>
