<svg width="27" height="21" viewBox="0 0 27 21" fill="none" xmlns="http://www.w3.org/2000/svg">
<path d="M26.8754 4.85527C26.7594 7.22196 24.9437 10.4572 21.441 14.5624C17.8159 18.8551 14.7443 21 12.2341 21C10.6818 21 9.36634 19.695 8.29231 17.0765C7.57263 14.674 6.85765 12.2716 6.13954 9.87626C5.33989 7.2563 4.4838 5.94703 3.56813 5.94703C3.369 5.94703 2.67441 6.32908 1.47651 7.09461L0.222168 5.61936C1.53609 4.56766 2.8312 3.51166 4.10907 2.45852C5.85888 1.07628 7.17437 0.350823 8.05241 0.274986C10.1221 0.0918324 11.3984 1.38393 11.8797 4.14698C12.3924 7.13038 12.7531 8.98482 12.9522 9.71171C13.5511 12.1843 14.2065 13.4177 14.9247 13.4177C15.4813 13.4177 16.3185 12.6193 17.4349 11.021C18.5513 9.41981 19.1455 8.20355 19.2271 7.36505C19.387 5.98281 18.7896 5.29598 17.4349 5.29598C16.7968 5.29598 16.1382 5.41904 15.4625 5.6766C16.7795 1.78601 19.2882 -0.105631 22.9948 0.00454819C25.7402 0.0746616 27.0369 1.69443 26.8754 4.85527Z" fill="#6E00FF"/>
</svg>
