<svg width="27" height="17" viewBox="0 0 27 17" fill="none" xmlns="http://www.w3.org/2000/svg">
<path fill-rule="evenodd" clip-rule="evenodd" d="M25.6733 1.26818C26.4724 2.0016 26.7333 3.66708 26.7333 3.66708C26.7333 3.66708 26.9999 5.62336 26.9999 7.57889V9.4128C26.9999 11.3691 26.7333 13.3246 26.7333 13.3246C26.7333 13.3246 26.4724 14.9901 25.6733 15.7235C24.7596 16.5911 23.7465 16.6808 23.1738 16.7314C23.1108 16.737 23.0532 16.7421 23.0016 16.7477C19.2699 16.9924 13.6666 17 13.6666 17C13.6666 17 6.73325 16.9426 4.59992 16.7568C4.49884 16.7397 4.37631 16.7264 4.23756 16.7113C3.56181 16.6378 2.50118 16.5225 1.65909 15.7235C0.859918 14.9901 0.599919 13.3246 0.599919 13.3246C0.599919 13.3246 0.333252 11.3691 0.333252 9.4128V7.57889C0.333252 5.62336 0.599919 3.66708 0.599919 3.66708C0.599919 3.66708 0.859918 2.0016 1.65909 1.26818C2.5748 0.399349 3.58887 0.310675 4.16156 0.260597C4.22366 0.255167 4.28056 0.250191 4.33159 0.244724C8.06325 0 13.6608 0 13.6608 0H13.6724C13.6724 0 19.2699 0 23.0016 0.244724C23.0526 0.250199 23.1095 0.255182 23.1717 0.260621C23.7439 0.310704 24.7584 0.39949 25.6733 1.26818ZM10.9124 4.84387L10.9133 11.635L18.1174 8.25112L10.9124 4.84387Z" fill="#6E00FF"/>
</svg>
